<mxfile host="app.diagrams.net" agent="Mozilla/5.0 (Macintosh; Intel Mac OS X 10_15_7) AppleWebKit/605.1.15 (KHTML, like Gecko) Version/17.6 Safari/605.1.15" version="24.7.16">
  <diagram id="R2lEEEUBdFMjLlhIrx00" name="Page-1">
    <mxGraphModel dx="806" dy="539" grid="1" gridSize="10" guides="1" tooltips="1" connect="1" arrows="1" fold="1" page="1" pageScale="1" pageWidth="850" pageHeight="1100" math="0" shadow="0" extFonts="Permanent Marker^https://fonts.googleapis.com/css?family=Permanent+Marker">
      <root>
        <mxCell id="0" />
        <mxCell id="1" parent="0" />
        <mxCell id="Hqk6FuV7zGCfNeXpY3Xt-3" style="edgeStyle=orthogonalEdgeStyle;rounded=0;orthogonalLoop=1;jettySize=auto;html=1;exitX=0.5;exitY=0;exitDx=0;exitDy=0;entryX=0.5;entryY=1;entryDx=0;entryDy=0;endArrow=none;endFill=0;" edge="1" parent="1" source="Hqk6FuV7zGCfNeXpY3Xt-1" target="Hqk6FuV7zGCfNeXpY3Xt-2">
          <mxGeometry relative="1" as="geometry" />
        </mxCell>
        <mxCell id="Hqk6FuV7zGCfNeXpY3Xt-15" style="edgeStyle=orthogonalEdgeStyle;rounded=0;orthogonalLoop=1;jettySize=auto;html=1;exitX=0.5;exitY=1;exitDx=0;exitDy=0;entryX=0.5;entryY=1;entryDx=0;entryDy=0;endArrow=none;endFill=0;" edge="1" parent="1" source="Hqk6FuV7zGCfNeXpY3Xt-9" target="Hqk6FuV7zGCfNeXpY3Xt-8">
          <mxGeometry relative="1" as="geometry" />
        </mxCell>
        <mxCell id="Hqk6FuV7zGCfNeXpY3Xt-16" style="edgeStyle=orthogonalEdgeStyle;rounded=0;orthogonalLoop=1;jettySize=auto;html=1;entryX=1;entryY=1;entryDx=0;entryDy=0;endArrow=none;endFill=0;" edge="1" parent="1" source="Hqk6FuV7zGCfNeXpY3Xt-1" target="Hqk6FuV7zGCfNeXpY3Xt-4">
          <mxGeometry relative="1" as="geometry" />
        </mxCell>
        <mxCell id="Hqk6FuV7zGCfNeXpY3Xt-17" style="edgeStyle=orthogonalEdgeStyle;rounded=0;orthogonalLoop=1;jettySize=auto;html=1;exitX=1;exitY=0.5;exitDx=0;exitDy=0;endArrow=none;endFill=0;" edge="1" parent="1" source="Hqk6FuV7zGCfNeXpY3Xt-10">
          <mxGeometry relative="1" as="geometry">
            <mxPoint x="120" y="100" as="targetPoint" />
            <Array as="points">
              <mxPoint x="100" y="145" />
              <mxPoint x="100" y="105" />
            </Array>
          </mxGeometry>
        </mxCell>
        <mxCell id="Hqk6FuV7zGCfNeXpY3Xt-18" style="edgeStyle=orthogonalEdgeStyle;rounded=0;orthogonalLoop=1;jettySize=auto;html=1;exitX=0;exitY=0.5;exitDx=0;exitDy=0;entryX=1;entryY=0;entryDx=0;entryDy=0;endArrow=none;endFill=0;" edge="1" parent="1" source="Hqk6FuV7zGCfNeXpY3Xt-1" target="Hqk6FuV7zGCfNeXpY3Xt-6">
          <mxGeometry relative="1" as="geometry" />
        </mxCell>
        <mxCell id="Hqk6FuV7zGCfNeXpY3Xt-19" style="edgeStyle=orthogonalEdgeStyle;rounded=0;orthogonalLoop=1;jettySize=auto;html=1;exitX=0;exitY=0.75;exitDx=0;exitDy=0;entryX=1;entryY=0.5;entryDx=0;entryDy=0;" edge="1" parent="1" source="Hqk6FuV7zGCfNeXpY3Xt-1" target="Hqk6FuV7zGCfNeXpY3Xt-5">
          <mxGeometry relative="1" as="geometry" />
        </mxCell>
        <mxCell id="Hqk6FuV7zGCfNeXpY3Xt-1" value="User" style="whiteSpace=wrap;html=1;align=center;fillColor=#dae8fc;strokeColor=#6c8ebf;" vertex="1" parent="1">
          <mxGeometry x="120" y="80" width="90" height="40" as="geometry" />
        </mxCell>
        <mxCell id="Hqk6FuV7zGCfNeXpY3Xt-2" value="&lt;u&gt;User_id&lt;/u&gt;" style="ellipse;whiteSpace=wrap;html=1;align=center;strokeColor=#596AFF;" vertex="1" parent="1">
          <mxGeometry y="10" width="75" height="30" as="geometry" />
        </mxCell>
        <mxCell id="Hqk6FuV7zGCfNeXpY3Xt-4" value="Full name&lt;span style=&quot;caret-color: rgba(0, 0, 0, 0); color: rgba(0, 0, 0, 0); font-family: monospace; font-size: 0px; text-align: start; white-space: nowrap;&quot;&gt;%3CmxGraphModel%3E%3Croot%3E%3CmxCell%20id%3D%220%22%2F%3E%3CmxCell%20id%3D%221%22%20parent%3D%220%22%2F%3E%3CmxCell%20id%3D%222%22%20value%3D%22%26lt%3Bu%26gt%3BUser_id%26lt%3B%2Fu%26gt%3B%22%20style%3D%22ellipse%3BwhiteSpace%3Dwrap%3Bhtml%3D1%3Balign%3Dcenter%3BstrokeColor%3D%23596AFF%3B%22%20vertex%3D%221%22%20parent%3D%221%22%3E%3CmxGeometry%20x%3D%22140%22%20y%3D%2210%22%20width%3D%2250%22%20height%3D%2220%22%20as%3D%22geometry%22%2F%3E%3C%2FmxCell%3E%3C%2Froot%3E%3C%2FmxGraphModel%3E&lt;/span&gt;" style="ellipse;whiteSpace=wrap;html=1;align=center;strokeColor=#596AFF;" vertex="1" parent="1">
          <mxGeometry y="50" width="75" height="30" as="geometry" />
        </mxCell>
        <mxCell id="Hqk6FuV7zGCfNeXpY3Xt-5" value="Phone number" style="ellipse;whiteSpace=wrap;html=1;align=center;strokeColor=#596AFF;" vertex="1" parent="1">
          <mxGeometry y="170" width="75" height="30" as="geometry" />
        </mxCell>
        <mxCell id="Hqk6FuV7zGCfNeXpY3Xt-6" value="Birthdate" style="ellipse;whiteSpace=wrap;html=1;align=center;strokeColor=#596AFF;" vertex="1" parent="1">
          <mxGeometry y="90" width="75" height="30" as="geometry" />
        </mxCell>
        <mxCell id="Hqk6FuV7zGCfNeXpY3Xt-7" value="Gender&lt;span style=&quot;caret-color: rgba(0, 0, 0, 0); color: rgba(0, 0, 0, 0); font-family: monospace; font-size: 0px; text-align: start; white-space: nowrap;&quot;&gt;%3CmxGraphModel%3E%3Croot%3E%3CmxCell%20id%3D%220%22%2F%3E%3CmxCell%20id%3D%221%22%20parent%3D%220%22%2F%3E%3CmxCell%20id%3D%222%22%20value%3D%22Full%20name%26lt%3Bspan%20style%3D%26quot%3Bcaret-color%3A%20rgba(0%2C%200%2C%200%2C%200)%3B%20color%3A%20rgba(0%2C%200%2C%200%2C%200)%3B%20font-family%3A%20monospace%3B%20font-size%3A%200px%3B%20text-align%3A%20start%3B%20white-space%3A%20nowrap%3B%26quot%3B%26gt%3B%253CmxGraphModel%253E%253Croot%253E%253CmxCell%2520id%253D%25220%2522%252F%253E%253CmxCell%2520id%253D%25221%2522%2520parent%253D%25220%2522%252F%253E%253CmxCell%2520id%253D%25222%2522%2520value%253D%2522%2526lt%253Bu%2526gt%253BUser_id%2526lt%253B%252Fu%2526gt%253B%2522%2520style%253D%2522ellipse%253BwhiteSpace%253Dwrap%253Bhtml%253D1%253Balign%253Dcenter%253BstrokeColor%253D%2523596AFF%253B%2522%2520vertex%253D%25221%2522%2520parent%253D%25221%2522%253E%253CmxGeometry%2520x%253D%2522140%2522%2520y%253D%252210%2522%2520width%253D%252250%2522%2520height%253D%252220%2522%2520as%253D%2522geometry%2522%252F%253E%253C%252FmxCell%253E%253C%252Froot%253E%253C%252FmxGraphModel%253E%26lt%3B%2Fspan%26gt%3B%22%20style%3D%22ellipse%3BwhiteSpace%3Dwrap%3Bhtml%3D1%3Balign%3Dcenter%3BstrokeColor%3D%23596AFF%3B%22%20vertex%3D%221%22%20parent%3D%221%22%3E%3CmxGeometry%20x%3D%2250%22%20y%3D%2210%22%20width%3D%2275%22%20height%3D%2230%22%20as%3D%22geometry%22%2F%3E%3C%2FmxCell%3E%3C%2Froot%3E%3C%2FmxGraphModel%3E&lt;/span&gt;" style="ellipse;whiteSpace=wrap;html=1;align=center;strokeColor=#596AFF;" vertex="1" parent="1">
          <mxGeometry y="250" width="75" height="30" as="geometry" />
        </mxCell>
        <mxCell id="Hqk6FuV7zGCfNeXpY3Xt-8" value="Username" style="ellipse;whiteSpace=wrap;html=1;align=center;strokeColor=#596AFF;" vertex="1" parent="1">
          <mxGeometry x="80" y="10" width="75" height="30" as="geometry" />
        </mxCell>
        <mxCell id="Hqk6FuV7zGCfNeXpY3Xt-9" value="Email" style="ellipse;whiteSpace=wrap;html=1;align=center;strokeColor=#596AFF;" vertex="1" parent="1">
          <mxGeometry x="160" y="10" width="75" height="30" as="geometry" />
        </mxCell>
        <mxCell id="Hqk6FuV7zGCfNeXpY3Xt-10" value="Full name&lt;span style=&quot;caret-color: rgba(0, 0, 0, 0); color: rgba(0, 0, 0, 0); font-family: monospace; font-size: 0px; text-align: start; white-space: nowrap;&quot;&gt;%3CmxGraphModel%3E%3Croot%3E%3CmxCell%20id%3D%220%22%2F%3E%3CmxCell%20id%3D%221%22%20parent%3D%220%22%2F%3E%3CmxCell%20id%3D%222%22%20value%3D%22%26lt%3Bu%26gt%3BUser_id%26lt%3B%2Fu%26gt%3B%22%20style%3D%22ellipse%3BwhiteSpace%3Dwrap%3Bhtml%3D1%3Balign%3Dcenter%3BstrokeColor%3D%23596AFF%3B%22%20vertex%3D%221%22%20parent%3D%221%22%3E%3CmxGeometry%20x%3D%22140%22%20y%3D%2210%22%20width%3D%2250%22%20height%3D%2220%22%20as%3D%22geometry%22%2F%3E%3C%2FmxCell%3E%3C%2Froot%3E%3C%2FmxGraphModel%3E&lt;/span&gt;" style="ellipse;whiteSpace=wrap;html=1;align=center;strokeColor=#596AFF;" vertex="1" parent="1">
          <mxGeometry y="130" width="75" height="30" as="geometry" />
        </mxCell>
        <mxCell id="Hqk6FuV7zGCfNeXpY3Xt-11" value="Created_at" style="ellipse;whiteSpace=wrap;html=1;align=center;strokeColor=#596AFF;" vertex="1" parent="1">
          <mxGeometry y="210" width="75" height="30" as="geometry" />
        </mxCell>
        <mxCell id="Hqk6FuV7zGCfNeXpY3Xt-12" value="Role(s)" style="ellipse;whiteSpace=wrap;html=1;align=center;strokeColor=#596AFF;" vertex="1" parent="1">
          <mxGeometry y="290" width="75" height="30" as="geometry" />
        </mxCell>
      </root>
    </mxGraphModel>
  </diagram>
</mxfile>
